<?xml version="1.0" encoding="utf-8"?>
<!-- Generator: Adobe Illustrator 19.1.0, SVG Export Plug-In . SVG Version: 6.00 Build 0)  -->
<svg version="1.1" id="Layer_1" xmlns="http://www.w3.org/2000/svg" xmlns:xlink="http://www.w3.org/1999/xlink" x="0px" y="0px"
	 viewBox="0 0 500 166.1" style="enable-background:new 0 0 500 166.1;" xml:space="preserve">
<g>
	<g>
		<g>
			<path d="M178.1,69.9l-3.5,4.2c-3.2-2.8-5.3-3.4-7.9-3.4c-5.6,0-9.1,4.2-9.1,10.7c0,6.6,3.5,10.8,9,10.8c3.2,0,5.2-1.2,8.5-3.9
				l3.5,4.1c-3.8,3.6-7.2,5.1-11.9,5.1c-9.5,0-15.2-6.9-15.2-16.1c0-9,5.5-16,15.3-16C171.5,65.4,174.6,66.8,178.1,69.9z"/>
			<path d="M202.4,85.7c0,7-4.7,11.7-11.4,11.7c-6.7,0-11.5-4.7-11.5-11.7c0-7,4.7-11.7,11.5-11.7C197.6,74,202.4,78.7,202.4,85.7z
				 M185.2,85.7c0,4.3,2.3,7,5.8,7c3.4,0,5.7-2.7,5.7-7c0-4.2-2.3-7-5.7-7C187.5,78.7,185.2,81.5,185.2,85.7z"/>
			<path d="M210.8,96.7h-5.6V66.1h5.6V96.7z"/>
			<path d="M220.4,96.7h-5.6V66.1h5.6V96.7z"/>
			<path d="M241.4,89.7l3.1,3.4c-3.2,3.3-6.3,4.3-9.8,4.3c-7.1,0-11.6-4.6-11.6-11.6c0-6.8,4.1-11.9,11.1-11.9
				c6.7,0,10.3,4.2,10.3,11c0,0.7,0,1.7-0.1,2.2h-15.8c0.5,3.2,2.4,5.5,6.2,5.5C237.4,92.7,238.8,91.8,241.4,89.7z M228.8,83.1h10.3
				c-0.2-2.9-1.9-4.8-5-4.8C231.1,78.4,229.4,80.3,228.8,83.1z"/>
			<path d="M257.7,78.7c-3.7,0-5.7,3.1-5.7,7c0,3.8,2,6.9,5.6,6.9c2.2,0,3.7-0.9,6-3.4l3.7,3.1c-3.1,3.9-5.9,5.1-9.8,5.1
				c-6.6,0-11.3-4.4-11.3-11.7S251.1,74,257.7,74c3.5,0,6.3,1,9.2,4.2l-3.5,3.4C261,79.2,259.5,78.7,257.7,78.7z"/>
			<path d="M282.8,96.4c-1.9,0.6-3.5,0.8-5,0.8c-4.5,0-6.3-2.1-6.3-6.2V79h-3.9v-4.3h3.9v-6.8h5.6v6.8h5.3V79h-5.3v11.4
				c0,1.6,0.7,2,2.2,2c0.6,0,1.3,0,2.8-0.4L282.8,96.4z"/>
			<path d="M290.6,96.7H285v-22h5.6V96.7z"/>
			<path d="M314.1,74.7l-7.5,22h-6.8l-7.5-22h5.9l2.2,7.2c1.2,3.8,2.1,7.1,2.8,10c0.7-2.9,1.6-6.2,2.8-10l2.2-7.2H314.1z"/>
			<path d="M332.2,89.7l3.1,3.4c-3.2,3.3-6.3,4.3-9.8,4.3c-7.1,0-11.6-4.6-11.6-11.6c0-6.8,4.1-11.9,11.1-11.9
				c6.7,0,10.3,4.2,10.3,11c0,0.7,0,1.7-0.1,2.2h-15.8c0.5,3.2,2.4,5.5,6.2,5.5C328.2,92.7,329.6,91.8,332.2,89.7z M319.6,83.1h10.3
				c-0.2-2.9-1.9-4.8-5-4.8C321.9,78.4,320.2,80.3,319.6,83.1z"/>
			<path d="M375.1,96.7h-6V83.1h-13.7v13.5h-6V66.1h6v12h13.7v-12h6V96.7z"/>
			<path d="M396.1,89.6l3.1,3.4c-3.2,3.3-6.3,4.3-9.8,4.3c-7.1,0-11.6-4.6-11.6-11.6c0-6.8,4.1-11.9,11.1-11.9
				c6.7,0,10.3,4.2,10.3,11c0,0.7,0,1.7-0.1,2.2h-15.8c0.5,3.2,2.4,5.5,6.2,5.5C392.2,92.6,393.5,91.8,396.1,89.6z M383.5,83.1h10.3
				c-0.2-2.9-1.9-4.8-5-4.8C385.8,78.3,384.1,80.2,383.5,83.1z"/>
			<path d="M421.1,81.8v14.9h-5v-2.3c-1.3,1.9-3.7,3-7.1,3c-4.2,0-7.9-1.8-7.9-6.3c0-5.1,4.5-6.9,9.5-7.8l5.2-0.9v-0.5
				c0-2.2-1.6-3.4-4.1-3.4c-3,0-4.6,1.4-6.9,3.6l-3.5-3.2c2.8-3.3,5.9-5,10.3-5C417.8,73.9,421.1,77.1,421.1,81.8z M415.7,87.7v-1.3
				l-3.7,0.8c-3.3,0.7-5.5,1.5-5.5,3.5c0,1.4,1.2,2.2,3.4,2.2C412.7,92.9,415.7,91.5,415.7,87.7z"/>
			<path d="M241.4,89.7l3.1,3.4c-3.2,3.3-6.3,4.3-9.8,4.3c-7.1,0-11.6-4.6-11.6-11.6c0-6.8,4.1-11.9,11.1-11.9
				c6.7,0,10.3,4.2,10.3,11c0,0.7,0,1.7-0.1,2.2h-15.8c0.5,3.2,2.4,5.5,6.2,5.5C237.4,92.7,238.8,91.8,241.4,89.7z M228.8,83.1h10.3
				c-0.2-2.9-1.9-4.8-5-4.8C231.1,78.4,229.4,80.3,228.8,83.1z"/>
			<path d="M430.4,96.7h-5.6V66.1h5.6V96.7z"/>
			<path d="M447.7,96.4c-1.9,0.6-3.5,0.8-5,0.8c-4.5,0-6.3-2.1-6.3-6.2V78.9h-3.9v-4.3h3.9v-6.8h5.6v6.8h5.3v4.3h-5.3v11.4
				c0,1.6,0.7,2,2.2,2c0.6,0,1.3,0,2.8-0.4L447.7,96.4z"/>
			<path d="M469.7,81.6v15.1h-5.6V83.3c0-2.9-1.4-4.5-4.1-4.5c-2.6,0-4.4,1.9-4.4,4.7v13.3h-5.6V66.1h5.6v10.6
				c1.4-1.7,3.5-2.7,6.3-2.7C466.9,73.9,469.7,77.1,469.7,81.6z"/>
			<path d="M291.1,68.8c0,1.9-1.4,3.3-3.3,3.3c-1.9,0-3.3-1.4-3.3-3.3s1.4-3.3,3.3-3.3C289.6,65.5,291.1,66.9,291.1,68.8z"/>
		</g>
		<g>
			<path d="M474.4,71.3c0,1.9-1.4,3.3-3.3,3.3c-1.9,0-3.3-1.4-3.3-3.3s1.4-3.3,3.3-3.3C473,68,474.4,69.4,474.4,71.3z M468.6,71.3
				c0,1.5,1,2.6,2.5,2.6c1.5,0,2.5-1.1,2.5-2.6c0-1.5-1.1-2.6-2.5-2.6C469.6,68.7,468.6,69.8,468.6,71.3z M472.6,70.6
				c0,0.5-0.3,0.9-0.7,1.1l0.9,1.4h-0.8l-0.8-1.3h-0.5v1.3h-0.8v-3.7h1.6C472.1,69.4,472.6,69.9,472.6,70.6z M470.6,70.1v1h0.7
				c0.4,0,0.5-0.2,0.5-0.5c0-0.3-0.2-0.5-0.5-0.5H470.6z"/>
		</g>
	</g>
	<g>
		<g>
			<path d="M80,135.5c-29.8,0-54.1-24.3-54.1-54.1S50.2,27.4,80,27.4v8.7c-25,0-45.3,20.3-45.3,45.3S55,126.7,80,126.7V135.5z"/>
		</g>
		<g>
			<path d="M80,126.7V118c20.2,0,36.6-16.4,36.6-36.6S100.1,44.8,80,44.8v-8.7c25,0,45.3,20.3,45.3,45.3S105,126.7,80,126.7z"/>
		</g>
		<g>
			<path d="M80,118c-20.2,0-36.6-16.4-36.6-36.6S59.8,44.8,80,44.8v8.7c-15.4,0-27.9,12.5-27.9,27.9s12.5,27.9,27.9,27.9V118z"/>
		</g>
	</g>
</g>
</svg>
