<svg width="188" height="42" viewBox="0 0 188 42" version="1.1" xmlns="http://www.w3.org/2000/svg"><title>logo--white</title><g id="Symbols" stroke="none" stroke-width="1" fill="none" fill-rule="evenodd"><g id="logo--white"><g id="nuvasive-logo"><path d="M5.879 15.767s-.084-1.815-.088-2.473l-.006-.235V3.61c20.457 2.884 23.056 19.778 23.072 19.908l5.778 1.616C33.095 16.318 27.08 7.58 17.682 3.736 9.347.33 1.117.29.772.29H0v13.49c0 .798.034.96.093 1.731L6.05 17.33a24.01 24.01 0 0 1-.171-1.563" id="Fill-1" fill="#FFF"/><path id="Fill-3" fill="#5A2655" d="M6.596 19.99l-.002-.001.002.001"/><path id="Fill-4" fill="#0A0B09" d="M28.851 23.517l-.005-.004.005.004"/><path id="Fill-5" fill="#0A0B09" d="M28.851 23.517l.005.001v-.001l-.005-.001"/><path d="M28.926 38.295v-3.033l-.001-.004h.001v-.036l-.004-.002c-2.646-.384-6.22-1.112-9.898-2.635C12.4 29.838 8.253 25.56 6.595 19.955l-.001-.002.004.07c.105.783 2.333 15.458 22.328 18.272" id="Fill-6" fill="#FFF"/><path d="M5.786 3.572V6.61c2.67.39 6.32 1.152 9.9 2.639 6.627 2.744 11.51 8.622 13.165 14.227h.006c-.016-.127-2.616-17.021-23.071-19.905" id="Fill-7" fill="#FFF"/><path d="M28.835 26.183c.012.196.077 1.299.084 2.432l.007.231v6.412h-.001l.001.004v3.033C8.385 35.405 6.594 19.994 6.594 19.989L.237 18.37c1.541 8.82 7.394 15.955 16.79 19.795 8.334 3.408 16.565 3.449 16.91 3.449h.774V28.128c0-.08-.003-.156-.004-.233l-5.872-1.712" id="Fill-8" fill="#FFF"/><path d="M38.904 40.549a1.446 1.446 0 0 1-.42 1.027 1.462 1.462 0 0 1-1.038.424c-.191 0-.371-.038-.54-.113a1.388 1.388 0 0 1-.444-.31 1.539 1.539 0 0 1-.41-1.055c0-.19.037-.37.11-.543a1.467 1.467 0 0 1 .758-.767 1.36 1.36 0 0 1 .554-.114 1.416 1.416 0 0 1 1.43 1.451zm-.212 0a1.258 1.258 0 0 0-.347-.871 1.16 1.16 0 0 0-.387-.26 1.252 1.252 0 0 0-.956 0 1.177 1.177 0 0 0-.636.646 1.24 1.24 0 0 0-.093.485c0 .176.031.34.093.49a1.21 1.21 0 0 0 .64.66c.146.062.301.094.468.094a1.179 1.179 0 0 0 .867-.358 1.21 1.21 0 0 0 .258-.396c.062-.15.093-.314.093-.49zm-.933.792l-.295-.65h-.222v.65h-.322v-1.574h.544c.437 0 .655.154.655.462 0 .195-.11.333-.332.414l.342.698h-.37zm.01-1.093c0-.15-.108-.226-.323-.226h-.204v.452h.222c.203 0 .305-.076.305-.226z" id="Fill-9" fill="#FFF"/><path d="M188 15.505a1.428 1.428 0 0 1-.886 1.338 1.443 1.443 0 0 1-.573.113c-.19 0-.37-.037-.54-.113a1.382 1.382 0 0 1-.442-.31 1.485 1.485 0 0 1-.3-.472 1.55 1.55 0 0 1-.11-.584c0-.188.036-.369.11-.542a1.49 1.49 0 0 1 .304-.457 1.422 1.422 0 0 1 1.006-.424 1.421 1.421 0 0 1 1.02.42 1.441 1.441 0 0 1 .411 1.031zm-.212 0c0-.17-.032-.33-.092-.48a1.162 1.162 0 0 0-.642-.65 1.248 1.248 0 0 0-.956 0 1.175 1.175 0 0 0-.636.645c-.062.148-.092.31-.092.485 0 .176.03.34.092.49.062.15.147.283.258.396a1.161 1.161 0 0 0 .848.358 1.184 1.184 0 0 0 .868-.358 1.22 1.22 0 0 0 .26-.396c.06-.15.092-.314.092-.49zm-.932.792l-.296-.65h-.221v.65h-.323v-1.573h.544c.437 0 .656.154.656.461 0 .195-.112.333-.333.414l.341.698h-.368zm.009-1.093c0-.15-.108-.226-.324-.226h-.202v.452h.221c.203 0 .305-.075.305-.226z" id="Fill-10" fill="#FFF"/><path id="Fill-11" fill="#FFF" d="M61.113 28.012L48.695 14.421v13.591h-2.69V11.446h3.34L61.74 25.038V11.446h2.689v16.566h-3.317"/><path d="M83.807 25.404c-.366.61-.897 1.14-1.591 1.59-.695.45-1.536.801-2.522 1.053-.986.251-2.1.377-3.34.377-1.24 0-2.357-.126-3.35-.377-.994-.252-1.839-.603-2.534-1.053-.695-.45-1.225-.98-1.59-1.59a3.836 3.836 0 0 1-.55-2.014v-9.45h2.69v8.901c0 1.007.448 1.778 1.344 2.312.897.533 2.227.8 3.99.8 1.763 0 3.09-.267 3.98-.8.888-.534 1.332-1.305 1.332-2.312v-8.9h2.69v9.45a3.84 3.84 0 0 1-.549 2.013" id="Fill-12" fill="#FFF"/><path id="Fill-13" fill="#FFF" d="M98.051 28.012h-3.093l-8.742-16.566h3.004l7.284 13.82 7.285-13.82h3.003l-8.741 16.566"/><path d="M119.412 28.012l-1.59-3.02h-9.258l-1.592 3.02h-2.959l7.509-14.072h3.34l7.51 14.072h-2.96zm-6.208-11.715l-3.296 6.223h6.568l-3.272-6.223z" id="Fill-14" fill="#FFF"/><path d="M134.9 16.331a12.57 12.57 0 0 0-3.026-.354c-3.062 0-4.595.556-4.595 1.67 0 .382.15.667.449.858.298.191.725.332 1.277.423.553.092 1.225.16 2.018.206.791.046 1.688.123 2.69.23 1.075.106 2.016.254 2.824.445.807.191 1.475.45 2.006.778.53.328.926.737 1.187 1.224.262.489.393 1.084.393 1.785 0 1.511-.654 2.678-1.96 3.501-1.309.823-3.233 1.236-5.773 1.236-3.542 0-6.373-.824-8.495-2.472l1.457-1.944c.941.67 1.995 1.178 3.16 1.521 1.165.343 2.444.515 3.833.515 1.599 0 2.813-.202 3.642-.606.83-.404 1.245-.942 1.245-1.613 0-.763-.524-1.29-1.57-1.58-.762-.213-1.662-.327-2.7-.343a45.8 45.8 0 0 1-3.53-.206c-1.704-.167-2.96-.537-3.766-1.11-.807-.571-1.21-1.421-1.21-2.55 0-1.343.634-2.407 1.905-3.193 1.27-.785 3.093-1.178 5.468-1.178 3.109 0 5.626.686 7.554 2.06l-1.658 1.784a12.462 12.462 0 0 0-2.825-1.087" id="Fill-15" fill="#FFF"/><path id="Fill-16" fill="#FFF" d="M143.484 28.012h2.691V13.94h-2.69z"/><path id="Fill-17" fill="#FFF" d="M159.174 28.012h-3.091L148.46 13.94h2.981l6.186 11.692 6.186-11.692h2.982l-7.622 14.072"/><path id="Fill-18" fill="#FFF" d="M169.082 28.012V13.94h14.323v2.471h-11.633v3.066h8.091v2.472h-8.09v3.592h12.148v2.471h-14.84"/></g></g></g></svg>